<svg width="16" height="634" viewBox="0 0 16 634" fill="none" xmlns="http://www.w3.org/2000/svg">
<path fill-rule="evenodd" clip-rule="evenodd" d="M16 8C16 11.7277 13.4505 14.8599 10 15.748L9.99999 200.252C13.4505 201.14 16 204.272 16 208C16 211.728 13.4504 214.86 9.99999 215.748L9.99998 392.252C13.4504 393.14 16 396.272 16 400C16 403.728 13.4504 406.86 9.99998 407.748L9.99997 618.252C13.4504 619.14 16 622.272 16 626C16 630.418 12.4183 634 8 634C3.58172 634 0 630.418 0 626C0 621.582 3.58172 618 8 618V408C3.58172 408 0 404.418 0 400C0 395.582 3.58172 392 8 392V216C3.58172 216 0 212.418 0 208C0 203.582 3.58172 200 8 200V16C3.58172 16 0 12.4183 0 8C0 3.58172 3.58172 0 8 0C12.4183 0 16 3.58172 16 8Z" fill="#CDC2FB"/>
</svg>
